<?xml version="1.0" standalone="no"?>
<!DOCTYPE svg PUBLIC "-//W3C//DTD SVG 20010904//EN"
 "http://www.w3.org/TR/2001/REC-SVG-20010904/DTD/svg10.dtd">
<svg version="1.0" xmlns="http://www.w3.org/2000/svg"
 width="100.000000pt" height="100.000000pt" viewBox="0 0 100.000000 100.000000"
 preserveAspectRatio="xMidYMid meet">
<metadata>
Created by potrace 1.11, written by Peter Selinger 2001-2013
</metadata>
<g transform="translate(0.000000,100.000000) scale(0.100000,-0.100000)"
fill="#000000" stroke="none">
<path d="M405 940 c-44 -27 -99 -58 -122 -70 l-43 -22 0 -345 c0 -285 2 -347
14 -359 8 -8 17 -14 20 -14 3 0 55 -29 115 -65 l111 -64 130 75 130 76 -1 346
0 347 -122 70 c-67 39 -129 71 -137 72 -8 1 -51 -20 -95 -47z m184 -387 c45
-26 81 -50 81 -53 0 -5 -43 -33 -95 -60 -16 -9 -40 -22 -52 -30 -24 -15 -31
-13 -118 40 -27 16 -59 34 -69 38 -20 9 -1 22 139 100 28 16 26 17 114 -35z"/>
</g>
</svg>
